<svg xmlns="http://www.w3.org/2000/svg" xmlns:xlink="http://www.w3.org/1999/xlink" xmlns:serif="http://www.serif.com/" width="100%" height="100%" viewBox="0 0 3125 2867" xml:space="preserve" style="fill-rule:evenodd;clip-rule:evenodd;stroke-linejoin:round;stroke-miterlimit:2;"><g><g id="_-ffca26ff" serif:id="#ffca26ff"><path d="M1322.57,42.188c29.34,0.347 58.68,0.52 88.02,0.694c-1.215,217.882 -0.868,435.938 -0.173,653.82c-29.514,-2.083 -59.028,-3.82 -88.542,-5.035c1.042,-216.493 -0.174,-432.986 0.695,-649.479Z" style="fill:#fff;fill-rule:nonzero;"></path><path d="M854.167,171.702c27.605,-12.5 55.035,-25.348 82.639,-38.195c88.195,194.445 178.82,388.021 270.66,580.903c-27.778,11.979 -55.555,24.306 -82.812,37.153c-88.889,-193.924 -179.341,-387.153 -270.487,-579.861Z" style="fill:#fff;fill-rule:nonzero;"></path><path d="M1520.31,722.396c93.576,-195.833 182.986,-393.576 276.562,-589.41c26.216,13.542 52.778,26.736 79.341,39.757c-93.403,197.049 -184.896,395.139 -276.563,593.056c-26.215,-14.93 -52.604,-29.514 -79.34,-43.403Z" style="fill:#fff;fill-rule:nonzero;"></path><path d="M457.118,517.362c176.737,116.145 353.82,231.944 532.293,345.312c-17.362,25.348 -34.549,50.868 -50.869,76.736c-175.173,-118.75 -353.993,-231.944 -531.771,-346.875c17.188,-24.826 34.028,-49.826 50.347,-75.173Z" style="fill:#fff;fill-rule:nonzero;"></path><path d="M1722.92,876.737c182.813,-121.181 369.098,-237.5 551.042,-360.417c16.32,25.694 32.986,51.215 50.174,76.389c-185.417,118.403 -369.271,239.062 -553.646,359.028c-15.278,-25.347 -31.424,-50.174 -47.57,-75Z" style="fill:#fff;fill-rule:nonzero;"></path><path d="M1034.9,948.959c76.909,-105.035 204.166,-175.521 336.285,-165.104c119.618,2.257 225.347,73.437 297.917,164.41c-211.459,1.909 -422.917,0.347 -634.202,0.694Z" style="fill:#fff;fill-rule:nonzero;"></path><path d="M1031.25,1368.58c213.021,2.257 426.042,1.389 639.063,0.348c-72.917,100.868 -190.278,173.437 -317.362,170.833c-128.298,3.125 -248.437,-68.229 -321.701,-171.181Z" style="fill:#fff;fill-rule:nonzero;"></path><path d="M1722.4,1446.36c16.667,-25.173 32.986,-50.521 48.959,-76.215c60.416,41.84 122.396,81.25 184.028,121.181c122.743,80.208 246.007,159.548 368.403,240.104c-16.841,24.653 -33.681,49.306 -50.521,74.132c-133.507,-90.451 -270.313,-176.389 -405.035,-264.931c-48.611,-31.423 -97.049,-63.021 -145.834,-94.271Z" style="fill:#fff;fill-rule:nonzero;"></path><path d="M406.771,1731.6c176.563,-117.014 356.25,-229.341 531.771,-347.917c16.667,25.694 33.681,51.041 51.389,76.041c-177.778,113.889 -355.729,227.431 -530.729,345.487c-17.361,-24.653 -34.896,-49.306 -52.431,-73.611Z" style="fill:#fff;fill-rule:nonzero;"></path><path d="M1520.66,1600.35c26.736,-14.237 53.299,-28.646 79.861,-43.23c22.57,51.042 45.313,102.084 69.097,152.605c55.382,115.451 109.028,231.771 162.848,347.917c14.409,31.076 28.819,61.805 43.403,92.708c-26.042,12.674 -52.257,25.521 -78.299,38.368c-10.938,-22.049 -21.875,-44.271 -32.639,-66.319c-55.035,-115.973 -109.028,-232.292 -162.847,-348.612c-26.737,-57.986 -53.82,-115.972 -81.424,-173.437Z" style="fill:#fff;fill-rule:nonzero;"></path><path d="M1124.31,1571.53c27.778,12.674 55.73,25 83.681,37.326c-65.451,131.251 -124.826,265.278 -187.847,397.917c-27.778,60.764 -55.903,121.528 -83.681,182.466c-27.43,-12.674 -54.687,-25.521 -82.118,-38.195c23.785,-50.868 47.569,-101.909 71.701,-152.604c66.146,-142.361 133.855,-283.854 198.264,-426.91Z" style="fill:#fff;fill-rule:nonzero;"></path><path d="M1322.05,1628.13c29.34,-0.521 58.68,-0.868 88.194,-1.389c-0.521,100.348 -0.521,200.521 -0.347,300.869c1.042,115.451 0.868,230.903 0.868,346.528c-29.861,-0.521 -59.722,-0.695 -89.41,-1.042c0,-101.042 -0.173,-201.91 0.868,-302.778c0.174,-114.063 0.348,-228.125 -0.173,-342.188Z" style="fill:#fff;fill-rule:nonzero;"></path></g><g id="_-4ebe57ff" serif:id="#4ebe57ff"><path d="M1955.38,1491.32c72.569,-33.16 151.909,-52.257 232.291,-46.875c228.82,10.59 460.938,78.298 642.362,222.222c120.66,93.056 214.063,215.972 294.965,343.924l0,9.028c-210.764,-108.681 -447.396,-174.306 -685.764,-167.188c-99.653,3.819 -200.521,7.813 -297.917,30.729c-116.84,28.82 -217.708,98.438 -308.854,174.48c-53.82,-116.146 -107.466,-232.466 -162.848,-347.917c61.98,-61.285 127.084,-119.271 198.612,-169.098c134.722,88.542 271.528,174.48 405.035,264.931c16.84,-24.826 33.68,-49.479 50.521,-74.132c-122.396,-80.556 -245.66,-159.896 -368.403,-240.104Z" style="fill:#fff;fill-rule:nonzero;"></path><path d="M144.965,1567.88c81.945,76.563 157.466,160.591 250.348,224.48c154.167,116.145 341.32,178.298 530.729,206.076c-24.132,50.695 -47.916,101.736 -71.701,152.604c27.431,12.674 54.688,25.521 82.118,38.195c27.778,-60.938 55.903,-121.702 83.681,-182.466c102.083,5.209 205.903,1.389 302.083,-36.458c-1.041,100.868 -0.868,201.736 -0.868,302.778c29.688,0.347 59.549,0.521 89.41,1.042c0,-115.625 0.174,-231.077 -0.868,-346.528c67.535,-46.702 131.597,-98.438 192.188,-153.82c53.819,116.32 107.812,232.639 162.847,348.612c-156.945,152.43 -314.931,347.048 -550.174,363.194c-244.098,4.688 -486.112,-83.507 -679.515,-231.076c-106.076,-96.181 -204.514,-203.646 -267.361,-333.855c-60.59,-110.069 -83.854,-234.549 -122.917,-352.778Z" style="fill:#fff;fill-rule:nonzero;"></path></g><g id="_-dcf0d5ff" serif:id="#dcf0d5ff"><path d="M2141.32,1883.16c97.396,-22.916 198.264,-26.91 297.917,-30.729c138.889,35.417 272.917,93.577 385.764,182.813c123.264,93.055 217.014,217.882 300.001,346.701l-0.001,9.028c-305.903,-163.194 -669.965,-207.813 -1006.77,-128.472c-240.625,71.007 -390.278,285.764 -572.049,442.708c-109.028,96.355 -251.042,165.626 -399.48,155.556c-204.34,-19.271 -407.118,-84.896 -573.438,-207.465c-182.986,-132.292 -315.104,-329.341 -378.993,-545.14c-14.931,-52.257 -24.653,-106.597 -50.174,-155.382c5.209,0 15.452,0.174 20.486,0.174c105.382,120.486 230.73,223.611 370.66,301.563c193.403,147.569 435.417,235.764 679.515,231.076c235.243,-16.146 393.229,-210.764 550.174,-363.194c10.764,22.048 21.701,44.27 32.639,66.319c26.042,-12.847 52.257,-25.694 78.299,-38.368c-14.584,-30.903 -28.994,-61.632 -43.403,-92.708c91.146,-76.042 192.014,-145.66 308.854,-174.48Z" style="fill:#fff;fill-rule:nonzero;"></path></g><g><path d="M418.534,1013.48l0,182.864c0,34.671 -11.582,59.584 -34.768,74.757c-23.185,15.174 -53.395,22.761 -90.629,22.761c-39.21,-0 -70.711,-7.292 -94.503,-21.858c-23.772,-14.566 -35.668,-38.298 -35.668,-71.198l-0,-187.326l97.125,-0l-0,177.413c-0,13.212 3.13,22.847 9.43,28.924c6.281,6.059 16.338,9.097 30.132,9.097c11.504,-0 20.955,-2.188 28.292,-6.58c7.357,-4.375 11.759,-9.323 13.187,-14.861c1.448,-5.521 2.172,-16.32 2.172,-32.361l-0,-161.632l75.23,-0Z" style="fill:#fff;fill-rule:nonzero;"></path><path d="M735.657,1289.61l-77.735,0l-85.228,-122.014c-10.938,-15.642 -21.973,-34.652 -33.106,-57.014c5.029,17.796 7.533,32.9 7.533,45.313l0,133.715l-77.52,0l0,-276.128l90.277,-0l72.511,101.128c14.439,20.104 25.377,37.778 32.831,53.021c-4.872,-23.611 -7.298,-47.743 -7.298,-72.43l0,-81.719l77.735,-0l0,276.128Z" style="fill:#fff;fill-rule:nonzero;"></path><rect x="789.913" y="1013.48" width="95.52" height="276.129" style="fill:#fff;"></rect><path d="M1209.01,1013.48l-96.577,276.128l-97.34,0l-100.979,-276.128l100.666,-0l49.247,150.503c3.366,8.907 6.34,17.657 8.922,26.302l57.524,-176.805l78.537,-0Z" style="fill:#fff;fill-rule:nonzero;"></path><path d="M1471.82,1223.65l-0,65.954l-234.144,0l-0,-276.128l234.144,-0l-0,63.715l-140.443,0l-0,40.052l113.54,0l-0,61.302l-113.54,0l-0,45.105l140.443,-0Z" style="fill:#fff;fill-rule:nonzero;"></path><path d="M1786.65,1289.61l-105.89,0l-45.451,-105.607l-30.131,-0l-0,105.607l-95.521,0l0,-276.128l162.553,-0c35.864,-0 63.726,7.448 83.566,22.343c19.82,14.914 29.74,34.566 29.74,58.976c-0,15.903 -3.64,29.966 -10.938,42.17c-7.298,12.205 -22.031,22.969 -44.238,32.275l56.31,120.364Zm-181.472,-164.67l40.814,0c12.013,0 21.659,-2.222 28.957,-6.684c7.298,-4.444 10.938,-10.989 10.938,-19.618c-0,-17.656 -12.229,-26.493 -36.706,-26.493l-44.003,-0l-0,52.795Z" style="fill:#fff;fill-rule:nonzero;"></path><path d="M1799.67,1209.69l88.672,-14.149c7.455,22.239 26.61,33.368 57.465,33.368c24.007,-0 36.02,-5.66 36.02,-16.997c0,-5.92 -2.778,-10.538 -8.335,-13.854c-5.537,-3.298 -15.457,-6.232 -29.74,-8.785c-54.569,-9.288 -89.611,-21.406 -105.107,-36.388c-15.496,-14.966 -23.244,-32.57 -23.244,-52.813c-0,-26.024 11.133,-47.691 33.399,-64.948c22.265,-17.274 54.295,-25.903 96.087,-25.903c63.374,0 105.264,22.587 125.613,67.761l-79.105,21.25c-8.198,-18.472 -24.848,-27.709 -49.932,-27.709c-20.818,0 -31.227,5.73 -31.227,17.188c0,5.121 2.348,9.097 7.063,11.927c4.716,2.847 13.833,5.538 27.373,8.09c37.234,6.979 63.687,13.16 79.339,18.542c15.673,5.382 28.743,14.566 39.21,27.604c10.488,13.021 15.731,28.368 15.731,46.042c0,27.934 -12.776,50.573 -38.31,67.917c-25.533,17.343 -59.049,26.024 -100.548,26.024c-75.838,-0 -122.639,-28.056 -140.424,-84.167Z" style="fill:#fff;fill-rule:nonzero;"></path><path d="M2283.82,1289.61l-17.59,-54.427l-83.37,0l-18.685,54.427l-77.539,0l96.068,-276.128l100.998,-0l97.595,276.128l-97.477,0Zm-84.72,-114.705l50.362,0l-25.181,-80.104l-25.181,80.104Z" style="fill:#fff;fill-rule:nonzero;"></path><path d="M2628.16,1221.83l-0,67.777l-218.198,0l-0,-276.128l95.539,-0l0,208.351l122.659,-0Z" style="fill:#fff;fill-rule:nonzero;"></path></g></g></svg>